<svg id="visual" viewBox="0 0 5000 2000" width="5000" height="2000" xmlns="http://www.w3.org/2000/svg" xmlns:xlink="http://www.w3.org/1999/xlink" version="1.1"><rect x="0" y="0" width="5000" height="2000" fill="#091a2b"></rect><defs><linearGradient id="grad1_0" x1="60%" y1="100%" x2="100%" y2="0%"><stop offset="0%" stop-color="#6600ff" stop-opacity="1"></stop><stop offset="100%" stop-color="#6600ff" stop-opacity="1"></stop></linearGradient></defs><defs><linearGradient id="grad1_1" x1="60%" y1="100%" x2="100%" y2="0%"><stop offset="0%" stop-color="#6600ff" stop-opacity="1"></stop><stop offset="100%" stop-color="#0033d4" stop-opacity="1"></stop></linearGradient></defs><defs><linearGradient id="grad1_2" x1="60%" y1="100%" x2="100%" y2="0%"><stop offset="0%" stop-color="#00349f" stop-opacity="1"></stop><stop offset="100%" stop-color="#0033d4" stop-opacity="1"></stop></linearGradient></defs><defs><linearGradient id="grad1_3" x1="60%" y1="100%" x2="100%" y2="0%"><stop offset="0%" stop-color="#00349f" stop-opacity="1"></stop><stop offset="100%" stop-color="#002964" stop-opacity="1"></stop></linearGradient></defs><defs><linearGradient id="grad1_4" x1="60%" y1="100%" x2="100%" y2="0%"><stop offset="0%" stop-color="#091a2b" stop-opacity="1"></stop><stop offset="100%" stop-color="#002964" stop-opacity="1"></stop></linearGradient></defs><defs><linearGradient id="grad2_0" x1="0%" y1="100%" x2="40%" y2="0%"><stop offset="0%" stop-color="#6600ff" stop-opacity="1"></stop><stop offset="100%" stop-color="#6600ff" stop-opacity="1"></stop></linearGradient></defs><defs><linearGradient id="grad2_1" x1="0%" y1="100%" x2="40%" y2="0%"><stop offset="0%" stop-color="#0033d4" stop-opacity="1"></stop><stop offset="100%" stop-color="#6600ff" stop-opacity="1"></stop></linearGradient></defs><defs><linearGradient id="grad2_2" x1="0%" y1="100%" x2="40%" y2="0%"><stop offset="0%" stop-color="#0033d4" stop-opacity="1"></stop><stop offset="100%" stop-color="#00349f" stop-opacity="1"></stop></linearGradient></defs><defs><linearGradient id="grad2_3" x1="0%" y1="100%" x2="40%" y2="0%"><stop offset="0%" stop-color="#002964" stop-opacity="1"></stop><stop offset="100%" stop-color="#00349f" stop-opacity="1"></stop></linearGradient></defs><defs><linearGradient id="grad2_4" x1="0%" y1="100%" x2="40%" y2="0%"><stop offset="0%" stop-color="#002964" stop-opacity="1"></stop><stop offset="100%" stop-color="#091a2b" stop-opacity="1"></stop></linearGradient></defs><g transform="translate(5000, 2000)"><path d="M-1663 0C-1707.3 -251.3 -1751.6 -502.5 -1663 -688.8C-1574.4 -875.1 -1352.9 -996.4 -1178 -1178C-1003.2 -1359.7 -875.1 -1601.6 -686.5 -1657.4C-498 -1713.3 -249 -1583.2 0 -1453L0 0Z" fill="#002247"></path><path d="M-1330.4 0C-1365.8 -201 -1401.3 -402 -1330.4 -551.1C-1259.5 -700.1 -1082.3 -797.1 -942.4 -942.4C-802.6 -1087.7 -700.1 -1281.3 -549.2 -1326C-398.4 -1370.7 -199.2 -1266.5 0 -1162.4L0 0Z" fill="#002f82"></path><path d="M-997.8 0C-1024.4 -150.8 -1051 -301.5 -997.8 -413.3C-944.6 -525.1 -811.7 -597.9 -706.8 -706.8C-601.9 -815.8 -525.1 -960.9 -411.9 -994.5C-298.8 -1028 -149.4 -949.9 0 -871.8L0 0Z" fill="#0035ba"></path><path d="M-665.2 0C-682.9 -100.5 -700.6 -201 -665.2 -275.5C-629.7 -350 -541.1 -398.6 -471.2 -471.2C-401.3 -543.9 -350 -640.6 -274.6 -663C-199.2 -685.3 -99.6 -633.3 0 -581.2L0 0Z" fill="#2d29eb"></path><path d="M-332.6 0C-341.5 -50.3 -350.3 -100.5 -332.6 -137.8C-314.9 -175 -270.6 -199.3 -235.6 -235.6C-200.6 -271.9 -175 -320.3 -137.3 -331.5C-99.6 -342.7 -49.8 -316.6 0 -290.6L0 0Z" fill="#6600ff"></path></g><g transform="translate(0, 0)"><path d="M1584 0C1679.4 268.1 1774.7 536.1 1663 688.8C1551.2 841.5 1232.3 878.8 1050.8 1050.8C869.2 1222.7 825 1529.2 672.8 1624.2C520.5 1719.2 260.3 1602.6 0 1486L0 0Z" fill="#002247"></path><path d="M1267.2 0C1343.5 214.5 1419.8 428.9 1330.4 551.1C1241 673.2 985.9 703.1 840.6 840.6C695.4 978.1 660 1223.4 538.2 1299.3C416.4 1375.3 208.2 1282.1 0 1188.8L0 0Z" fill="#002f82"></path><path d="M950.4 0C1007.6 160.8 1064.8 321.7 997.8 413.3C930.7 504.9 739.4 527.3 630.5 630.5C521.5 733.6 495 917.5 403.7 974.5C312.3 1031.5 156.2 961.5 0 891.6L0 0Z" fill="#0035ba"></path><path d="M633.6 0C671.7 107.2 709.9 214.5 665.2 275.5C620.5 336.6 492.9 351.5 420.3 420.3C347.7 489.1 330 611.7 269.1 649.7C208.2 687.7 104.1 641 0 594.4L0 0Z" fill="#2d29eb"></path><path d="M316.8 0C335.9 53.6 354.9 107.2 332.6 137.8C310.2 168.3 246.5 175.8 210.2 210.2C173.8 244.5 165 305.8 134.6 324.8C104.1 343.8 52.1 320.5 0 297.2L0 0Z" fill="#6600ff"></path></g></svg>