<svg id="visual" viewBox="0 0 4000 2000" width="4000" height="2000" xmlns="http://www.w3.org/2000/svg" xmlns:xlink="http://www.w3.org/1999/xlink" version="1.1"><g stroke-width="1" stroke-linejoin="bevel"><path d="M2219.2 1189L2223.2 1586L2659.7 1228Z" fill="#205a7a" stroke="#205a7a"></path><path d="M2223.2 1586L2637.7 1608L2659.7 1228Z" fill="#1d4e6b" stroke="#1d4e6b"></path><path d="M3113.1 1226L2688.7 802L2659.7 1228Z" fill="#00101c" stroke="#00101c"></path><path d="M2659.7 1228L2688.7 802L2219.2 1189Z" fill="#081a28" stroke="#081a28"></path><path d="M2688.7 802L2233.2 767L2219.2 1189Z" fill="#0c2435" stroke="#0c2435"></path><path d="M1793.8 1625L2206.2 2000L2223.2 1586Z" fill="#112e42" stroke="#112e42"></path><path d="M2223.2 1586L2206.2 2000L2637.7 1608Z" fill="#0c2435" stroke="#0c2435"></path><path d="M2206.2 2000L2681.7 2000L2637.7 1608Z" fill="#297ea6" stroke="#297ea6"></path><path d="M3124.1 1567L3113.1 1226L2659.7 1228Z" fill="#277297" stroke="#277297"></path><path d="M1737.8 1177L1793.8 1625L2219.2 1189Z" fill="#15384f" stroke="#15384f"></path><path d="M2219.2 1189L1793.8 1625L2223.2 1586Z" fill="#246688" stroke="#246688"></path><path d="M3124.1 1567L2659.7 1228L2637.7 1608Z" fill="#1d4e6b" stroke="#1d4e6b"></path><path d="M1783.8 803L1737.8 1177L2219.2 1189Z" fill="#205a7a" stroke="#205a7a"></path><path d="M3080.1 2000L3124.1 1567L2637.7 1608Z" fill="#081a28" stroke="#081a28"></path><path d="M2233.2 767L1783.8 803L2219.2 1189Z" fill="#0c2435" stroke="#0c2435"></path><path d="M1360.3 1584L1790.8 2000L1793.8 1625Z" fill="#205a7a" stroke="#205a7a"></path><path d="M1793.8 1625L1790.8 2000L2206.2 2000Z" fill="#19435d" stroke="#19435d"></path><path d="M2681.7 2000L3080.1 2000L2637.7 1608Z" fill="#246688" stroke="#246688"></path><path d="M3541.6 1184L3105.1 784L3113.1 1226Z" fill="#081a28" stroke="#081a28"></path><path d="M3113.1 1226L3105.1 784L2688.7 802Z" fill="#1d4e6b" stroke="#1d4e6b"></path><path d="M2674.7 424L2217.2 434L2233.2 767Z" fill="#205a7a" stroke="#205a7a"></path><path d="M2674.7 424L2233.2 767L2688.7 802Z" fill="#205a7a" stroke="#205a7a"></path><path d="M2233.2 767L2217.2 434L1783.8 803Z" fill="#081a28" stroke="#081a28"></path><path d="M3105.1 784L2674.7 424L2688.7 802Z" fill="#297ea6" stroke="#297ea6"></path><path d="M1737.8 1177L1360.3 1584L1793.8 1625Z" fill="#246688" stroke="#246688"></path><path d="M1321.3 1180L1360.3 1584L1737.8 1177Z" fill="#081a28" stroke="#081a28"></path><path d="M1311.3 805L1737.8 1177L1783.8 803Z" fill="#112e42" stroke="#112e42"></path><path d="M1311.3 805L1321.3 1180L1737.8 1177Z" fill="#297ea6" stroke="#297ea6"></path><path d="M3124.1 1567L3541.6 1184L3113.1 1226Z" fill="#15384f" stroke="#15384f"></path><path d="M3555.6 1621L3541.6 1184L3124.1 1567Z" fill="#15384f" stroke="#15384f"></path><path d="M3080.1 2000L3555.6 1621L3124.1 1567Z" fill="#246688" stroke="#246688"></path><path d="M2213.2 0L1805.8 398L2217.2 434Z" fill="#19435d" stroke="#19435d"></path><path d="M2217.2 434L1805.8 398L1783.8 803Z" fill="#205a7a" stroke="#205a7a"></path><path d="M3105.1 784L3141.1 417L2674.7 424Z" fill="#205a7a" stroke="#205a7a"></path><path d="M2674.7 424L2213.2 0L2217.2 434Z" fill="#15384f" stroke="#15384f"></path><path d="M3574.6 785L3141.1 417L3105.1 784Z" fill="#246688" stroke="#246688"></path><path d="M1356.3 363L1311.3 805L1783.8 803Z" fill="#297ea6" stroke="#297ea6"></path><path d="M915.9 1602L1300.3 2000L1360.3 1584Z" fill="#246688" stroke="#246688"></path><path d="M1360.3 1584L1300.3 2000L1790.8 2000Z" fill="#19435d" stroke="#19435d"></path><path d="M915.9 1602L1360.3 1584L1321.3 1180Z" fill="#246688" stroke="#246688"></path><path d="M4000 1170L3574.6 785L3541.6 1184Z" fill="#15384f" stroke="#15384f"></path><path d="M3541.6 1184L3574.6 785L3105.1 784Z" fill="#19435d" stroke="#19435d"></path><path d="M3080.1 2000L3567.6 2000L3555.6 1621Z" fill="#277297" stroke="#277297"></path><path d="M3555.6 1621L4000 1565L3541.6 1184Z" fill="#19435d" stroke="#19435d"></path><path d="M2686.7 0L2213.2 0L2674.7 424Z" fill="#19435d" stroke="#19435d"></path><path d="M1805.8 398L1356.3 363L1783.8 803Z" fill="#297ea6" stroke="#297ea6"></path><path d="M3088.1 0L2674.7 424L3141.1 417Z" fill="#112e42" stroke="#112e42"></path><path d="M3088.1 0L2686.7 0L2674.7 424Z" fill="#112e42" stroke="#112e42"></path><path d="M1768.8 0L1356.3 363L1805.8 398Z" fill="#19435d" stroke="#19435d"></path><path d="M3574.6 785L3552.6 412L3141.1 417Z" fill="#19435d" stroke="#19435d"></path><path d="M909.9 1160L915.9 1602L1321.3 1180Z" fill="#205a7a" stroke="#205a7a"></path><path d="M909.9 1160L1321.3 1180L1311.3 805Z" fill="#00101c" stroke="#00101c"></path><path d="M872.9 805L909.9 1160L1311.3 805Z" fill="#297ea6" stroke="#297ea6"></path><path d="M2213.2 0L1768.8 0L1805.8 398Z" fill="#19435d" stroke="#19435d"></path><path d="M3556.6 0L3088.1 0L3141.1 417Z" fill="#205a7a" stroke="#205a7a"></path><path d="M4000 2000L4000 1565L3555.6 1621Z" fill="#112e42" stroke="#112e42"></path><path d="M3574.6 785L4000 433L3552.6 412Z" fill="#205a7a" stroke="#205a7a"></path><path d="M4000 1565L4000 1170L3541.6 1184Z" fill="#205a7a" stroke="#205a7a"></path><path d="M858.9 381L872.9 805L1311.3 805Z" fill="#081a28" stroke="#081a28"></path><path d="M481.4 2000L849.9 2000L915.9 1602Z" fill="#19435d" stroke="#19435d"></path><path d="M441.4 1562L915.9 1602L909.9 1160Z" fill="#112e42" stroke="#112e42"></path><path d="M915.9 1602L849.9 2000L1300.3 2000Z" fill="#081a28" stroke="#081a28"></path><path d="M4000 1170L4000 774L3574.6 785Z" fill="#0c2435" stroke="#0c2435"></path><path d="M3552.6 412L3556.6 0L3141.1 417Z" fill="#00101c" stroke="#00101c"></path><path d="M3567.6 2000L4000 2000L3555.6 1621Z" fill="#277297" stroke="#277297"></path><path d="M1768.8 0L1326.3 0L1356.3 363Z" fill="#0c2435" stroke="#0c2435"></path><path d="M1356.3 363L858.9 381L1311.3 805Z" fill="#19435d" stroke="#19435d"></path><path d="M4000 0L3556.6 0L3552.6 412Z" fill="#0c2435" stroke="#0c2435"></path><path d="M4000 774L4000 433L3574.6 785Z" fill="#205a7a" stroke="#205a7a"></path><path d="M924.9 0L858.9 381L1356.3 363Z" fill="#15384f" stroke="#15384f"></path><path d="M872.9 805L445.4 1170L909.9 1160Z" fill="#277297" stroke="#277297"></path><path d="M406.4 807L445.4 1170L872.9 805Z" fill="#1d4e6b" stroke="#1d4e6b"></path><path d="M445.4 1170L441.4 1562L909.9 1160Z" fill="#0c2435" stroke="#0c2435"></path><path d="M441.4 1562L481.4 2000L915.9 1602Z" fill="#00101c" stroke="#00101c"></path><path d="M426.4 378L406.4 807L872.9 805Z" fill="#297ea6" stroke="#297ea6"></path><path d="M1326.3 0L924.9 0L1356.3 363Z" fill="#081a28" stroke="#081a28"></path><path d="M4000 433L4000 0L3552.6 412Z" fill="#081a28" stroke="#081a28"></path><path d="M426.4 378L872.9 805L858.9 381Z" fill="#205a7a" stroke="#205a7a"></path><path d="M0 1161L0 1577L441.4 1562Z" fill="#297ea6" stroke="#297ea6"></path><path d="M446.4 0L426.4 378L858.9 381Z" fill="#246688" stroke="#246688"></path><path d="M924.9 0L446.4 0L858.9 381Z" fill="#246688" stroke="#246688"></path><path d="M0 1161L441.4 1562L445.4 1170Z" fill="#297ea6" stroke="#297ea6"></path><path d="M441.4 1562L0 2000L481.4 2000Z" fill="#081a28" stroke="#081a28"></path><path d="M0 1161L445.4 1170L406.4 807Z" fill="#081a28" stroke="#081a28"></path><path d="M0 1161L406.4 807L0 816Z" fill="#0c2435" stroke="#0c2435"></path><path d="M0 816L406.4 807L0 415Z" fill="#205a7a" stroke="#205a7a"></path><path d="M0 415L406.4 807L426.4 378Z" fill="#205a7a" stroke="#205a7a"></path><path d="M0 1577L0 2000L441.4 1562Z" fill="#297ea6" stroke="#297ea6"></path><path d="M0 0L0 415L426.4 378Z" fill="#081a28" stroke="#081a28"></path><path d="M446.4 0L0 0L426.4 378Z" fill="#19435d" stroke="#19435d"></path></g></svg>